<svg width="24" height="22" viewBox="0 0 24 22" fill="none" xmlns="http://www.w3.org/2000/svg">
<path d="M22.8148 4.70478C22.2706 2.17513 20.0387 0.36552 17.4512 0.355957H5.48217C2.45564 0.359801 0.00328125 2.81263 0 5.83911V10.8229C0.00328125 13.8493 2.45583 16.3018 5.48217 16.3051H7.55644L9.06455 19.2585C9.75877 20.6114 11.1603 21.4536 12.6808 21.4314C14.8558 21.4343 16.6213 19.6734 16.6241 17.4984C16.6244 17.2749 16.6057 17.0518 16.5681 16.8314L16.4784 16.3051H18.5098C21.5375 16.3051 23.9919 13.8507 23.9919 10.823C23.9919 10.4418 23.9522 10.0616 23.8733 9.68867L22.8148 4.70478ZM2.99025 10.8229V5.83911C2.99025 4.46286 4.10592 3.34724 5.48213 3.34724H6.97725V13.3148H5.48213C4.10592 13.3148 2.99025 12.1992 2.99025 10.8229ZM20.4405 12.3928C19.9681 12.9774 19.2563 13.3164 18.5047 13.3148H12.9309L13.6156 17.3337C13.6647 17.6091 13.5875 17.8919 13.4053 18.1042C13.2115 18.3291 12.9255 18.4532 12.6288 18.4411C12.2514 18.4451 11.9042 18.2355 11.7317 17.8999L9.9675 14.4541V3.34724H17.4511C18.6273 3.35071 19.642 4.17364 19.8882 5.32382L20.9428 10.3076C21.0999 11.0428 20.9151 11.8097 20.4405 12.3928Z" fill="white"/>
</svg>
